<svg width="900" height="200" viewBox="0 0 900 200" fill="none" xmlns="http://www.w3.org/2000/svg">
<g clip-path="url(#clip0_42_2)">
<path d="M0 64L30 75.8C60 87.7 120 111.3 180 117.2C240 123 300 111 360 99C420 87 480 75 540 82.7C600 90.3 660 117.7 720 131C780 144.3 840 143.7 870 143.3L900 143V201H870C840 201 780 201 720 201C660 201 600 201 540 201C480 201 420 201 360 201C300 201 240 201 180 201C120 201 60 201 30 201H0V64Z" fill="#121212"/>
</g>
<defs>
<clipPath id="clip0_42_2">
<rect width="900" height="200" fill="white"/>
</clipPath>
</defs>
</svg>
