<svg width="90" height="90" viewBox="0 0 90 90" fill="none" xmlns="http://www.w3.org/2000/svg">
<mask id="mask0_53_12" style="mask-type:luminance" maskUnits="userSpaceOnUse" x="4" y="19" width="81" height="52">
<path d="M4 19H85V70.75H4V19Z" fill="white"/>
</mask>
<g mask="url(#mask0_53_12)">
<path d="M59.6523 19.3752C59.2422 19.3752 58.8672 19.7034 58.8672 20.1604V34.387L55.6094 32.5002C55.4102 32.3831 55.1758 32.3245 54.9531 32.3245C54.7188 32.3245 54.4961 32.3831 54.2852 32.5002L46.4688 37.0237C46.0586 37.2581 45.8008 37.6917 45.8008 38.1487V47.1956C45.8008 47.6643 46.0586 48.0979 46.4688 48.3206L54.2852 52.844C54.4961 52.9612 54.7188 53.0198 54.9531 53.0198C55.1758 53.0198 55.4102 52.9612 55.6094 52.844L63.4375 48.3206C63.8477 48.0979 64.0938 47.6643 64.0938 47.1956V22.5627C64.0938 22.1057 63.8477 21.6838 63.4492 21.4495L60.0391 19.4807C59.9219 19.4104 59.793 19.3752 59.6523 19.3752ZM34.0469 32.3245C33.8242 32.3245 33.5898 32.3831 33.3906 32.5002L25.5625 37.0237C25.1523 37.2581 24.9062 37.6917 24.9062 38.1487V47.1956C24.9062 47.6643 25.1523 48.0979 25.5625 48.3206L33.3906 52.844C33.8008 53.0784 34.3047 53.0784 34.7148 52.844L42.5312 48.3206C42.9414 48.0979 43.1992 47.6643 43.1992 47.1956V38.1487C43.1992 37.6799 42.9414 37.2581 42.5312 37.0237L34.7148 32.5002C34.5039 32.3831 34.2812 32.3245 34.0469 32.3245ZM75.8594 32.3245C75.625 32.3245 75.3906 32.3831 75.1914 32.5002L67.3633 37.0237C66.9648 37.2581 66.707 37.6917 66.707 38.1487V47.1956C66.707 47.6643 66.9648 48.0979 67.3633 48.3206L74.957 52.8674C75.3672 53.1135 75.8711 53.1135 76.293 52.8792L80.0195 50.7346C80.4062 50.512 80.4062 49.9612 80.0195 49.7268L71.9336 45.0159V40.3635L75.8594 38.1135L79.7734 40.3635V43.6096C79.7734 44.0315 80.1367 44.1018 80.3828 43.9612C81.3789 43.387 84.3555 41.676 84.3555 41.676C84.7539 41.4417 85 41.0198 85 40.551V38.1487C85 37.6799 84.7539 37.2581 84.3438 37.0237L76.5156 32.5002C76.3164 32.3831 76.082 32.3245 75.8594 32.3245ZM13.1406 32.3362C12.918 32.3362 12.6836 32.3831 12.4844 32.512L4.65625 37.0237C4.24609 37.2581 4 37.6917 4 38.1487V49.7034C4 50.2659 4.62109 50.6174 5.10156 50.3362L8.58203 48.3323C8.98047 48.0979 9.22656 47.676 9.22656 47.219V40.3752L13.1406 38.1135L17.0664 40.3752V47.219C17.0664 47.676 17.3125 48.0979 17.7109 48.3323L21.1797 50.3362C21.6719 50.6174 22.293 50.2659 22.293 49.7034V38.1487C22.293 37.6917 22.0352 37.2581 21.6367 37.0237L13.8086 32.512C13.6094 32.3831 13.375 32.3362 13.1406 32.3362ZM54.9531 38.1135L58.8672 40.3752V44.969L54.9531 47.2424L51.0273 44.969V40.3752L54.9531 38.1135ZM75.8594 40.094L73.6094 41.3948V43.9729L75.8594 45.262L78.0977 43.9729V41.3948L75.8594 40.094ZM44.2539 50.4299C43.9844 50.4299 43.7148 50.5002 43.4805 50.6292L36.1328 54.8362C35.6523 55.1057 35.3594 55.6213 35.3594 56.1604V64.5627C35.3594 65.1018 35.6641 65.6174 36.1328 65.887L38.0664 66.9768C38.9922 67.4338 39.332 67.4338 39.7539 67.4338C41.1367 67.4338 41.9336 66.6135 41.9336 65.1604V56.8635C41.9336 56.7346 41.8281 56.6409 41.7109 56.6409H40.7852C40.6562 56.6409 40.5625 56.7463 40.5625 56.8635V65.1604C40.5625 65.7932 39.8945 66.4377 38.8047 65.8987L36.7891 64.7502C36.7187 64.7151 36.6719 64.6331 36.6719 64.5627V56.1604C36.6719 56.0784 36.7187 55.9963 36.7891 55.9495L44.1367 51.7542C44.2188 51.719 44.3008 51.719 44.3711 51.7542L51.7188 55.9495C51.8008 55.9963 51.8359 56.0667 51.8359 56.1604V64.5627C51.8359 64.6448 51.7891 64.7268 51.7188 64.762L44.3711 68.969C44.3008 69.0042 44.1953 69.0042 44.1367 68.969L42.2617 67.8674C42.2148 67.844 42.1328 67.8206 42.0859 67.844C41.5586 68.1487 41.4531 68.1956 40.9727 68.3596C40.8437 68.3948 40.668 68.4768 41.043 68.676L43.4805 70.1057C43.7266 70.2346 43.9844 70.3167 44.2539 70.3167C44.5352 70.3167 44.8047 70.2346 45.0156 70.094L52.375 65.887C52.8555 65.6292 53.1484 65.1018 53.1484 64.5627V56.1604C53.1484 55.6213 52.8438 55.1174 52.375 54.8362L45.0156 50.6292C44.793 50.5002 44.5234 50.4299 44.2539 50.4299ZM55.7148 54.3088C54.9648 54.3088 54.3086 54.9065 54.3086 55.7034C54.3086 56.4768 54.9414 57.1096 55.7148 57.1096C56.4883 57.1096 57.1211 56.4768 57.1211 55.7034C57.1211 54.9065 56.4766 54.2971 55.7148 54.3088ZM55.7031 54.5315C56.3711 54.5315 56.8984 55.0471 56.8984 55.7034C56.8984 56.3479 56.3594 56.8752 55.7031 56.8987C55.0469 56.8987 54.5195 56.3596 54.5195 55.7034C54.5195 55.0471 55.0586 54.5315 55.7031 54.5315ZM55.1875 54.9182V56.4885H55.4922V55.8557H55.7734C55.8789 55.8557 55.9141 55.9026 55.9375 55.9963C55.9375 56.0081 55.9844 56.4182 55.9961 56.4885H56.3242C56.2891 56.4182 56.2656 56.1956 56.2422 56.0667C56.207 55.8674 56.1953 55.7268 55.9844 55.7151C56.1016 55.6799 56.2891 55.6213 56.2891 55.3284C56.2891 54.9065 55.9258 54.9182 55.7266 54.9182H55.1875ZM55.4922 55.1643H55.7383C55.8203 55.1643 55.9727 55.1643 55.9727 55.3752C55.9727 55.469 55.9375 55.6096 55.7266 55.6096H55.4922V55.1643ZM46.2227 56.4534C44.125 56.4534 42.8828 57.3323 42.8828 58.7971C42.8828 60.3909 44.125 60.8245 46.1406 61.0237C48.543 61.2581 48.7305 61.6096 48.7305 62.0667C48.7305 62.887 48.0625 63.2268 46.5156 63.2268C44.5703 63.2268 44.1367 62.7463 43.9961 61.7971C43.9844 61.6917 43.8906 61.6213 43.7852 61.6213H42.8242C42.707 61.6213 42.6133 61.7034 42.6133 61.8323C42.6133 63.051 43.2812 64.5159 46.5039 64.5159C48.8594 64.5159 50.1953 63.6135 50.1953 62.0198C50.1953 60.4495 49.1289 60.0276 46.8672 59.7229C44.5703 59.4182 44.3477 59.2659 44.3477 58.7385C44.3477 58.3049 44.5352 57.719 46.2227 57.719C47.7344 57.719 48.2969 58.0471 48.5312 59.0549C48.5547 59.1604 48.625 59.219 48.7305 59.219H49.6797C49.75 59.219 49.7969 59.1956 49.8438 59.1604C49.8789 59.1135 49.9023 59.0549 49.8906 58.9963C49.7383 57.262 48.5781 56.4534 46.2227 56.4534Z" fill="url(#paint0_linear_53_12)"/>
</g>
<defs>
<linearGradient id="paint0_linear_53_12" x1="4.85121" y1="70.8521" x2="50.7657" y2="-2.15477" gradientUnits="userSpaceOnUse">
<stop stop-color="#5EBCE5"/>
<stop offset="0.03125" stop-color="#5EBCE5"/>
<stop offset="0.0390625" stop-color="#5EBCE5"/>
<stop offset="0.0429688" stop-color="#62B9E5"/>
<stop offset="0.046875" stop-color="#66B6E5"/>
<stop offset="0.0507813" stop-color="#67B5E5"/>
<stop offset="0.0546875" stop-color="#68B5E5"/>
<stop offset="0.0585938" stop-color="#68B4E5"/>
<stop offset="0.0625" stop-color="#69B4E5"/>
<stop offset="0.0664062" stop-color="#6AB3E5"/>
<stop offset="0.0703125" stop-color="#6AB3E5"/>
<stop offset="0.0742188" stop-color="#6BB2E5"/>
<stop offset="0.078125" stop-color="#6CB2E5"/>
<stop offset="0.0820312" stop-color="#6CB1E5"/>
<stop offset="0.0859375" stop-color="#6DB1E5"/>
<stop offset="0.0898438" stop-color="#6EB0E5"/>
<stop offset="0.09375" stop-color="#6EB0E5"/>
<stop offset="0.0976563" stop-color="#6FAFE5"/>
<stop offset="0.101563" stop-color="#70AFE5"/>
<stop offset="0.105469" stop-color="#70AEE5"/>
<stop offset="0.109375" stop-color="#71AEE5"/>
<stop offset="0.113281" stop-color="#72ADE5"/>
<stop offset="0.117188" stop-color="#72ADE5"/>
<stop offset="0.121094" stop-color="#73ACE5"/>
<stop offset="0.125" stop-color="#74ACE5"/>
<stop offset="0.128906" stop-color="#74ABE5"/>
<stop offset="0.132812" stop-color="#75ABE5"/>
<stop offset="0.136719" stop-color="#75AAE5"/>
<stop offset="0.140625" stop-color="#76AAE5"/>
<stop offset="0.144531" stop-color="#77A9E5"/>
<stop offset="0.148438" stop-color="#77A9E5"/>
<stop offset="0.152344" stop-color="#78A8E5"/>
<stop offset="0.15625" stop-color="#79A8E5"/>
<stop offset="0.160156" stop-color="#79A7E5"/>
<stop offset="0.164063" stop-color="#7AA7E5"/>
<stop offset="0.167969" stop-color="#7BA6E5"/>
<stop offset="0.171875" stop-color="#7BA6E5"/>
<stop offset="0.175781" stop-color="#7CA5E5"/>
<stop offset="0.179688" stop-color="#7DA5E5"/>
<stop offset="0.183594" stop-color="#7DA4E5"/>
<stop offset="0.1875" stop-color="#7EA4E5"/>
<stop offset="0.191406" stop-color="#7FA3E5"/>
<stop offset="0.195313" stop-color="#7FA3E5"/>
<stop offset="0.199219" stop-color="#80A2E5"/>
<stop offset="0.203125" stop-color="#81A1E5"/>
<stop offset="0.207031" stop-color="#81A1E5"/>
<stop offset="0.210938" stop-color="#82A0E5"/>
<stop offset="0.214844" stop-color="#83A0E5"/>
<stop offset="0.21875" stop-color="#839FE5"/>
<stop offset="0.222656" stop-color="#849FE5"/>
<stop offset="0.226562" stop-color="#859EE5"/>
<stop offset="0.230469" stop-color="#859EE5"/>
<stop offset="0.234375" stop-color="#869DE5"/>
<stop offset="0.238281" stop-color="#869DE5"/>
<stop offset="0.242188" stop-color="#879CE5"/>
<stop offset="0.246094" stop-color="#889CE5"/>
<stop offset="0.25" stop-color="#889BE5"/>
<stop offset="0.253906" stop-color="#899BE5"/>
<stop offset="0.257812" stop-color="#8A9AE5"/>
<stop offset="0.261719" stop-color="#8A9AE5"/>
<stop offset="0.265625" stop-color="#8B99E5"/>
<stop offset="0.269531" stop-color="#8C99E5"/>
<stop offset="0.273438" stop-color="#8C98E5"/>
<stop offset="0.277344" stop-color="#8D98E5"/>
<stop offset="0.28125" stop-color="#8E97E5"/>
<stop offset="0.285156" stop-color="#8E97E6"/>
<stop offset="0.289062" stop-color="#8F96E6"/>
<stop offset="0.292969" stop-color="#9096E6"/>
<stop offset="0.296875" stop-color="#9095E6"/>
<stop offset="0.300781" stop-color="#9195E6"/>
<stop offset="0.304688" stop-color="#9294E6"/>
<stop offset="0.308594" stop-color="#9294E6"/>
<stop offset="0.3125" stop-color="#9393E6"/>
<stop offset="0.316406" stop-color="#9493E6"/>
<stop offset="0.320312" stop-color="#9492E6"/>
<stop offset="0.324219" stop-color="#9592E6"/>
<stop offset="0.328125" stop-color="#9691E6"/>
<stop offset="0.332031" stop-color="#9691E6"/>
<stop offset="0.335937" stop-color="#9790E6"/>
<stop offset="0.339844" stop-color="#9790E6"/>
<stop offset="0.34375" stop-color="#988FE6"/>
<stop offset="0.347656" stop-color="#998FE6"/>
<stop offset="0.351562" stop-color="#998EE6"/>
<stop offset="0.355469" stop-color="#9A8EE6"/>
<stop offset="0.359375" stop-color="#9B8DE6"/>
<stop offset="0.363281" stop-color="#9B8DE6"/>
<stop offset="0.367187" stop-color="#9C8CE6"/>
<stop offset="0.371094" stop-color="#9D8CE6"/>
<stop offset="0.375" stop-color="#9D8BE6"/>
<stop offset="0.378906" stop-color="#9E8BE6"/>
<stop offset="0.382813" stop-color="#9F8AE6"/>
<stop offset="0.386719" stop-color="#9F8AE6"/>
<stop offset="0.390625" stop-color="#A089E6"/>
<stop offset="0.394531" stop-color="#A189E6"/>
<stop offset="0.398438" stop-color="#A188E6"/>
<stop offset="0.402344" stop-color="#A288E6"/>
<stop offset="0.40625" stop-color="#A387E6"/>
<stop offset="0.410156" stop-color="#A387E6"/>
<stop offset="0.414063" stop-color="#A486E6"/>
<stop offset="0.417969" stop-color="#A586E6"/>
<stop offset="0.421875" stop-color="#A585E6"/>
<stop offset="0.425781" stop-color="#A685E6"/>
<stop offset="0.429688" stop-color="#A784E6"/>
<stop offset="0.433594" stop-color="#A784E6"/>
<stop offset="0.4375" stop-color="#A883E6"/>
<stop offset="0.441406" stop-color="#A883E6"/>
<stop offset="0.445312" stop-color="#A982E6"/>
<stop offset="0.449219" stop-color="#AA82E6"/>
<stop offset="0.453125" stop-color="#AA81E6"/>
<stop offset="0.457031" stop-color="#AB81E6"/>
<stop offset="0.460938" stop-color="#AC80E6"/>
<stop offset="0.464844" stop-color="#AC80E6"/>
<stop offset="0.46875" stop-color="#AD7FE6"/>
<stop offset="0.472656" stop-color="#AE7FE6"/>
<stop offset="0.476562" stop-color="#AE7EE6"/>
<stop offset="0.480469" stop-color="#AF7EE6"/>
<stop offset="0.484375" stop-color="#B07DE6"/>
<stop offset="0.488281" stop-color="#B07DE6"/>
<stop offset="0.492188" stop-color="#B17CE6"/>
<stop offset="0.496094" stop-color="#B27CE6"/>
<stop offset="0.5" stop-color="#B27BE6"/>
<stop offset="0.503906" stop-color="#B37BE6"/>
<stop offset="0.507812" stop-color="#B47AE6"/>
<stop offset="0.511719" stop-color="#B47AE6"/>
<stop offset="0.515625" stop-color="#B579E6"/>
<stop offset="0.519531" stop-color="#B679E6"/>
<stop offset="0.523438" stop-color="#B678E6"/>
<stop offset="0.527344" stop-color="#B778E5"/>
<stop offset="0.53125" stop-color="#B778E3"/>
<stop offset="0.535156" stop-color="#B777E2"/>
<stop offset="0.539062" stop-color="#B877E1"/>
<stop offset="0.542969" stop-color="#B877E0"/>
<stop offset="0.546875" stop-color="#B877DF"/>
<stop offset="0.550781" stop-color="#B976DD"/>
<stop offset="0.554688" stop-color="#B976DC"/>
<stop offset="0.558594" stop-color="#BA76DB"/>
<stop offset="0.5625" stop-color="#BA75DA"/>
<stop offset="0.566406" stop-color="#BA75D9"/>
<stop offset="0.570312" stop-color="#BB75D8"/>
<stop offset="0.574219" stop-color="#BB75D6"/>
<stop offset="0.578125" stop-color="#BC74D5"/>
<stop offset="0.582031" stop-color="#BC74D4"/>
<stop offset="0.585938" stop-color="#BC74D3"/>
<stop offset="0.589844" stop-color="#BD74D2"/>
<stop offset="0.59375" stop-color="#BD73D1"/>
<stop offset="0.597656" stop-color="#BE73CF"/>
<stop offset="0.601562" stop-color="#BE73CE"/>
<stop offset="0.605469" stop-color="#BE73CD"/>
<stop offset="0.609375" stop-color="#BF72CC"/>
<stop offset="0.613281" stop-color="#BF72CB"/>
<stop offset="0.617188" stop-color="#BF72C9"/>
<stop offset="0.621094" stop-color="#C072C8"/>
<stop offset="0.625" stop-color="#C071C7"/>
<stop offset="0.628906" stop-color="#C171C6"/>
<stop offset="0.632812" stop-color="#C171C5"/>
<stop offset="0.636719" stop-color="#C171C4"/>
<stop offset="0.640625" stop-color="#C270C2"/>
<stop offset="0.644531" stop-color="#C270C1"/>
<stop offset="0.648437" stop-color="#C370C0"/>
<stop offset="0.652344" stop-color="#C370BF"/>
<stop offset="0.65625" stop-color="#C36FBE"/>
<stop offset="0.660156" stop-color="#C46FBD"/>
<stop offset="0.664062" stop-color="#C46FBB"/>
<stop offset="0.667969" stop-color="#C56FBA"/>
<stop offset="0.671875" stop-color="#C56EB9"/>
<stop offset="0.675781" stop-color="#C56EB8"/>
<stop offset="0.679687" stop-color="#C66EB7"/>
<stop offset="0.683594" stop-color="#C66DB5"/>
<stop offset="0.6875" stop-color="#C66DB4"/>
<stop offset="0.691406" stop-color="#C76DB3"/>
<stop offset="0.695312" stop-color="#C76DB2"/>
<stop offset="0.699219" stop-color="#C86CB1"/>
<stop offset="0.703125" stop-color="#C86CB0"/>
<stop offset="0.707031" stop-color="#C86CAE"/>
<stop offset="0.710937" stop-color="#C96CAD"/>
<stop offset="0.714844" stop-color="#C96BAC"/>
<stop offset="0.71875" stop-color="#CA6BAB"/>
<stop offset="0.722656" stop-color="#CA6BAA"/>
<stop offset="0.726562" stop-color="#CA6BA8"/>
<stop offset="0.730469" stop-color="#CB6AA7"/>
<stop offset="0.734375" stop-color="#CB6AA6"/>
<stop offset="0.738281" stop-color="#CB6AA5"/>
<stop offset="0.742187" stop-color="#CC6AA4"/>
<stop offset="0.746094" stop-color="#CC69A3"/>
<stop offset="0.75" stop-color="#CD69A1"/>
<stop offset="0.753906" stop-color="#CD69A0"/>
<stop offset="0.757813" stop-color="#CD699F"/>
<stop offset="0.761719" stop-color="#CE689E"/>
<stop offset="0.765625" stop-color="#CE689D"/>
<stop offset="0.769531" stop-color="#CF689C"/>
<stop offset="0.773438" stop-color="#CF689A"/>
<stop offset="0.777344" stop-color="#CF6799"/>
<stop offset="0.78125" stop-color="#D06798"/>
<stop offset="0.785156" stop-color="#D06797"/>
<stop offset="0.789063" stop-color="#D16796"/>
<stop offset="0.792969" stop-color="#D16694"/>
<stop offset="0.796875" stop-color="#D16693"/>
<stop offset="0.800781" stop-color="#D26692"/>
<stop offset="0.804688" stop-color="#D26691"/>
<stop offset="0.808594" stop-color="#D26590"/>
<stop offset="0.8125" stop-color="#D3658F"/>
<stop offset="0.816406" stop-color="#D3658D"/>
<stop offset="0.820313" stop-color="#D4648C"/>
<stop offset="0.824219" stop-color="#D4648B"/>
<stop offset="0.828125" stop-color="#D4648A"/>
<stop offset="0.832031" stop-color="#D56489"/>
<stop offset="0.835938" stop-color="#D56388"/>
<stop offset="0.839844" stop-color="#D66386"/>
<stop offset="0.84375" stop-color="#D66385"/>
<stop offset="0.847656" stop-color="#D66384"/>
<stop offset="0.851563" stop-color="#D76283"/>
<stop offset="0.855469" stop-color="#D76282"/>
<stop offset="0.859375" stop-color="#D86280"/>
<stop offset="0.863281" stop-color="#D8627F"/>
<stop offset="0.867188" stop-color="#D8617E"/>
<stop offset="0.871094" stop-color="#D9617D"/>
<stop offset="0.875" stop-color="#D9617C"/>
<stop offset="0.878906" stop-color="#D9617B"/>
<stop offset="0.882812" stop-color="#DA6079"/>
<stop offset="0.886719" stop-color="#DA6078"/>
<stop offset="0.890625" stop-color="#DB6077"/>
<stop offset="0.894531" stop-color="#DB6076"/>
<stop offset="0.898438" stop-color="#DB5F75"/>
<stop offset="0.902344" stop-color="#DC5F73"/>
<stop offset="0.90625" stop-color="#DC5F72"/>
<stop offset="0.910156" stop-color="#DD5F71"/>
<stop offset="0.914062" stop-color="#DD5E70"/>
<stop offset="0.917969" stop-color="#DD5E6F"/>
<stop offset="0.921875" stop-color="#DE5E6E"/>
<stop offset="0.925781" stop-color="#DE5E6C"/>
<stop offset="0.929688" stop-color="#DF5D6B"/>
<stop offset="0.933594" stop-color="#DF5D6A"/>
<stop offset="0.9375" stop-color="#DF5D69"/>
<stop offset="0.941406" stop-color="#E05D68"/>
<stop offset="0.945312" stop-color="#E05C67"/>
<stop offset="0.949219" stop-color="#E05C65"/>
<stop offset="0.953125" stop-color="#E15C64"/>
<stop offset="0.957031" stop-color="#E15B63"/>
<stop offset="0.960938" stop-color="#E25B62"/>
<stop offset="0.96875" stop-color="#E25B61"/>
<stop offset="1" stop-color="#E25B61"/>
</linearGradient>
</defs>
</svg>
