<svg width="1920" height="1080" viewBox="0 0 1920 1080" fill="none" xmlns="http://www.w3.org/2000/svg">
<mask id="mask0_31_277" style="mask-type:luminance" maskUnits="userSpaceOnUse" x="539" y="108" width="842" height="841">
<path d="M539.261 108H1380.26V949H539.261V108Z" fill="white"/>
</mask>
<g mask="url(#mask0_31_277)">
<mask id="mask1_31_277" style="mask-type:luminance" maskUnits="userSpaceOnUse" x="539" y="108" width="842" height="841">
<path d="M987.792 542.516C987.792 550.255 981.516 556.531 973.776 556.531H749.511C741.766 556.531 735.49 550.255 735.49 542.516C735.49 534.776 741.766 528.5 749.511 528.5H973.776C981.516 528.5 987.792 534.776 987.792 542.516ZM693.443 598.583V654.651C693.443 662.391 687.167 668.667 679.427 668.667H623.36C615.62 668.667 609.344 662.391 609.344 654.651V598.583C609.344 590.844 615.62 584.568 623.36 584.568H679.427C687.167 584.568 693.443 590.844 693.443 598.583ZM665.407 612.599H637.375V640.635H665.407V612.599ZM749.511 388.333H833.61C841.349 388.333 847.625 382.057 847.625 374.318C847.625 366.578 841.349 360.302 833.61 360.302H749.511C741.766 360.302 735.49 366.578 735.49 374.318C735.49 382.057 741.766 388.333 749.511 388.333ZM749.511 500.469H833.61C841.349 500.469 847.625 494.193 847.625 486.448C847.625 478.708 841.349 472.432 833.61 472.432H749.511C741.766 472.432 735.49 478.708 735.49 486.448C735.49 494.193 741.766 500.469 749.511 500.469ZM833.61 584.568H749.511C741.766 584.568 735.49 590.844 735.49 598.583C735.49 606.323 741.766 612.599 749.511 612.599H833.61C841.349 612.599 847.625 606.323 847.625 598.583C847.625 590.844 841.349 584.568 833.61 584.568ZM683.532 364.406L637.375 410.563L619.256 392.443C613.776 386.969 604.907 386.969 599.433 392.443C593.959 397.911 593.959 406.786 599.433 412.26L627.464 440.297C630.198 443.031 633.787 444.401 637.375 444.401C640.964 444.401 644.552 443.031 647.287 440.297L703.354 384.229C708.828 378.755 708.828 369.88 703.354 364.406C697.881 358.932 689.006 358.932 683.532 364.406ZM683.532 476.536L637.375 522.698L619.256 504.573C613.776 499.099 604.907 499.099 599.433 504.573C593.959 510.047 593.959 518.922 599.433 524.396L627.464 552.427C630.198 555.167 633.787 556.531 637.375 556.531C640.964 556.531 644.552 555.167 647.287 552.427L703.354 496.359C708.828 490.891 708.828 482.016 703.354 476.542C697.881 471.063 689.006 471.063 683.532 476.536ZM1043.86 486.448V570.656C1079.02 544.198 1122.71 528.5 1170.01 528.5C1285.94 528.5 1380.26 622.818 1380.26 738.75C1380.26 854.682 1285.94 949 1170.01 949C1113.64 949 1062.38 926.693 1024.58 890.453C1020.76 892.068 1016.61 892.932 1012.32 892.932H570.797C553.407 892.932 539.261 878.786 539.261 861.396V279.703C539.261 262.313 553.407 248.167 570.797 248.167H665.407V237.656C665.407 220.266 679.558 206.115 696.948 206.115H707.459V181.589C707.459 164.198 721.604 150.052 738.995 150.052H844.12C861.511 150.052 875.657 164.198 875.657 181.589V206.115H886.172C903.563 206.115 917.709 220.266 917.709 237.656V248.167H959.761V181.589C959.761 164.198 973.907 150.052 991.297 150.052H1015.82C1015.82 126.865 1034.69 108 1057.88 108C1081.06 108 1099.93 126.865 1099.93 150.052H1127.96C1127.96 126.865 1146.82 108 1170.01 108C1193.19 108 1212.06 126.865 1212.06 150.052H1240.09C1240.09 126.865 1258.96 108 1282.14 108C1305.33 108 1324.19 126.865 1324.19 150.052H1348.72C1366.11 150.052 1380.26 164.198 1380.26 181.589V454.911C1380.26 472.302 1366.11 486.448 1348.72 486.448H1043.86ZM1226.07 402.349C1226.07 371.432 1200.92 346.281 1170.01 346.281C1139.09 346.281 1113.94 371.432 1113.94 402.349C1113.94 433.266 1139.09 458.417 1170.01 458.417C1200.92 458.417 1226.07 433.266 1226.07 402.349ZM1268.13 178.083C1268.13 185.813 1274.41 192.099 1282.14 192.099C1289.87 192.099 1296.16 185.813 1296.16 178.083V150.052C1296.16 142.323 1289.87 136.031 1282.14 136.031C1274.41 136.031 1268.13 142.323 1268.13 150.052V178.083ZM1155.99 178.083C1155.99 185.813 1162.28 192.099 1170.01 192.099C1177.73 192.099 1184.03 185.813 1184.03 178.083V150.052C1184.03 142.323 1177.73 136.031 1170.01 136.031C1162.28 136.031 1155.99 142.323 1155.99 150.052V178.083ZM1043.86 178.083C1043.86 185.813 1050.15 192.099 1057.88 192.099C1065.6 192.099 1071.89 185.813 1071.89 178.083V150.052C1071.89 142.323 1065.6 136.031 1057.88 136.031C1050.15 136.031 1043.86 142.323 1043.86 150.052V178.083ZM987.792 248.167H1352.22V181.589C1352.22 179.656 1350.65 178.083 1348.72 178.083H1324.19C1324.19 201.271 1305.33 220.135 1282.14 220.135C1258.96 220.135 1240.09 201.271 1240.09 178.083H1212.06C1212.06 201.271 1193.19 220.135 1170.01 220.135C1146.82 220.135 1127.96 201.271 1127.96 178.083H1099.93C1099.93 201.271 1081.06 220.135 1057.88 220.135C1034.69 220.135 1015.82 201.271 1015.82 178.083H991.297C989.365 178.083 987.792 179.656 987.792 181.589V248.167ZM735.49 206.115H847.625V181.589C847.625 179.656 846.052 178.083 844.12 178.083H738.995C737.063 178.083 735.49 179.656 735.49 181.589V206.115ZM693.443 286.714C693.443 288.646 695.016 290.219 696.948 290.219H886.172C888.105 290.219 889.677 288.646 889.677 286.714V237.656C889.677 235.724 888.105 234.151 886.172 234.151H696.948C695.016 234.151 693.443 235.724 693.443 237.656V286.714ZM861.641 794.818C861.641 756.172 830.203 724.734 791.558 724.734C752.917 724.734 721.474 756.172 721.474 794.818C721.474 833.458 752.917 864.901 791.558 864.901C830.203 864.901 861.641 833.458 861.641 794.818ZM1001.92 864.901C975.459 829.734 959.761 786.042 959.761 738.75C959.761 714.188 964.006 690.599 971.787 668.667H749.511C741.766 668.667 735.49 662.391 735.49 654.651C735.49 646.911 741.766 640.635 749.511 640.635H973.776C977.078 640.635 980.11 641.781 982.506 643.698C991.386 626.245 1002.64 610.203 1015.82 595.974V486.448H991.297C973.907 486.448 959.761 472.302 959.761 454.911V444.401H749.511C741.766 444.401 735.49 438.125 735.49 430.385C735.49 422.641 741.766 416.365 749.511 416.365H959.761V276.198H917.709V286.714C917.709 304.104 903.563 318.25 886.172 318.25H696.948C679.558 318.25 665.407 304.104 665.407 286.714V276.198H570.797C568.865 276.198 567.292 277.771 567.292 279.703V861.396C567.292 863.328 568.865 864.901 570.797 864.901H722.985C704.771 847.078 693.443 822.25 693.443 794.818C693.443 740.714 737.453 696.698 791.558 696.698C845.662 696.698 889.677 740.714 889.677 794.818C889.677 822.25 878.344 847.078 860.131 864.901H1001.92ZM987.792 738.75C987.792 839.224 1069.53 920.969 1170.01 920.969C1270.48 920.969 1352.22 839.224 1352.22 738.75C1352.22 638.276 1270.48 556.531 1170.01 556.531C1069.53 556.531 987.792 638.276 987.792 738.75ZM1107.39 458.417C1094.05 443.526 1085.91 423.875 1085.91 402.349C1085.91 355.979 1123.64 318.25 1170.01 318.25C1216.38 318.25 1254.11 355.979 1254.11 402.349C1254.11 423.875 1245.97 443.526 1232.63 458.417H1348.72C1350.65 458.417 1352.22 456.844 1352.22 454.911V276.198H987.792V454.911C987.792 456.844 989.365 458.417 991.297 458.417H1107.39ZM1207.95 378.422C1202.48 372.948 1193.6 372.948 1188.13 378.422L1155.99 410.563L1151.89 406.458C1146.41 400.984 1137.54 400.984 1132.06 406.458C1126.59 411.932 1126.59 420.802 1132.06 426.276L1146.08 440.297C1148.82 443.031 1152.4 444.401 1155.99 444.401C1159.58 444.401 1163.17 443.031 1165.9 440.297L1207.95 398.245C1213.43 392.771 1213.43 383.896 1207.95 378.422ZM1310.18 290.219H1282.14C1274.4 290.219 1268.13 296.495 1268.13 304.234C1268.13 311.974 1274.4 318.25 1282.14 318.25H1310.18C1317.92 318.25 1324.19 311.974 1324.19 304.234C1324.19 296.495 1317.92 290.219 1310.18 290.219ZM1310.18 346.281H1282.14C1274.4 346.281 1268.13 352.557 1268.13 360.302C1268.13 368.042 1274.4 374.318 1282.14 374.318H1310.18C1317.92 374.318 1324.19 368.042 1324.19 360.302C1324.19 352.557 1317.92 346.281 1310.18 346.281ZM1310.18 402.349H1282.14C1274.4 402.349 1268.13 408.625 1268.13 416.365C1268.13 424.109 1274.4 430.385 1282.14 430.385H1310.18C1317.92 430.385 1324.19 424.109 1324.19 416.365C1324.19 408.625 1317.92 402.349 1310.18 402.349ZM1057.88 290.219H1029.84C1022.1 290.219 1015.82 296.495 1015.82 304.234C1015.82 311.974 1022.1 318.25 1029.84 318.25H1057.88C1065.61 318.25 1071.89 311.974 1071.89 304.234C1071.89 296.495 1065.61 290.219 1057.88 290.219ZM1057.88 346.281H1029.84C1022.1 346.281 1015.82 352.557 1015.82 360.302C1015.82 368.042 1022.1 374.318 1029.84 374.318H1057.88C1065.61 374.318 1071.89 368.042 1071.89 360.302C1071.89 352.557 1065.61 346.281 1057.88 346.281ZM1057.88 402.349H1029.84C1022.1 402.349 1015.82 408.625 1015.82 416.365C1015.82 424.109 1022.1 430.385 1029.84 430.385H1057.88C1065.61 430.385 1071.89 424.109 1071.89 416.365C1071.89 408.625 1065.61 402.349 1057.88 402.349ZM1141.97 290.219H1113.94C1106.2 290.219 1099.93 296.495 1099.93 304.234C1099.93 311.974 1106.2 318.25 1113.94 318.25H1141.97C1149.71 318.25 1155.99 311.974 1155.99 304.234C1155.99 296.495 1149.71 290.219 1141.97 290.219ZM1226.07 290.219H1198.04C1190.3 290.219 1184.03 296.495 1184.03 304.234C1184.03 311.974 1190.3 318.25 1198.04 318.25H1226.07C1233.82 318.25 1240.09 311.974 1240.09 304.234C1240.09 296.495 1233.82 290.219 1226.07 290.219ZM1015.82 738.75C1015.82 653.734 1084.99 584.568 1170.01 584.568C1255.03 584.568 1324.19 653.734 1324.19 738.75C1324.19 823.766 1255.03 892.932 1170.01 892.932C1084.99 892.932 1015.82 823.766 1015.82 738.75ZM1043.86 738.75C1043.86 808.307 1100.45 864.901 1170.01 864.901C1239.57 864.901 1296.16 808.307 1296.16 738.75C1296.16 669.193 1239.57 612.599 1170.01 612.599C1100.45 612.599 1043.86 669.193 1043.86 738.75ZM1160.1 748.661C1162.83 751.396 1166.42 752.766 1170.01 752.766C1173.59 752.766 1177.18 751.396 1179.92 748.661L1235.98 692.594C1241.46 687.12 1241.46 678.245 1235.98 672.776C1230.51 667.302 1221.64 667.302 1216.16 672.776L1170.01 718.927L1151.89 700.807C1146.41 695.333 1137.54 695.333 1132.06 700.807C1126.59 706.281 1126.59 715.156 1132.06 720.63L1160.1 748.661ZM1170.01 682.682C1177.75 682.682 1184.03 676.406 1184.03 668.667V640.635C1184.03 632.891 1177.75 626.615 1170.01 626.615C1162.27 626.615 1155.99 632.891 1155.99 640.635V668.667C1155.99 676.406 1162.27 682.682 1170.01 682.682ZM1071.89 752.766H1099.93C1107.67 752.766 1113.94 746.49 1113.94 738.75C1113.94 731.01 1107.67 724.734 1099.93 724.734H1071.89C1064.15 724.734 1057.88 731.01 1057.88 738.75C1057.88 746.49 1064.15 752.766 1071.89 752.766ZM1226.07 738.75C1226.07 746.49 1232.35 752.766 1240.09 752.766H1268.13C1275.86 752.766 1282.14 746.49 1282.14 738.75C1282.14 731.01 1275.86 724.734 1268.13 724.734H1240.09C1232.35 724.734 1226.07 731.01 1226.07 738.75ZM1170.01 794.818C1162.27 794.818 1155.99 801.094 1155.99 808.833V836.865C1155.99 844.609 1162.27 850.885 1170.01 850.885C1177.75 850.885 1184.03 844.609 1184.03 836.865V808.833C1184.03 801.094 1177.75 794.818 1170.01 794.818ZM843.521 756.87C838.047 751.396 829.172 751.396 823.698 756.87L777.542 803.031L759.422 784.906C753.943 779.432 745.073 779.432 739.599 784.906C734.125 790.38 734.125 799.255 739.599 804.729L767.631 832.76C770.365 835.5 773.953 836.865 777.542 836.865C781.131 836.865 784.719 835.5 787.453 832.76L843.521 776.693C848.995 771.219 848.995 762.344 843.521 756.87Z" fill="white"/>
</mask>
<g mask="url(#mask1_31_277)">
<path d="M539.261 108V949H1380.26V108H539.261Z" fill="url(#paint0_linear_31_277)"/>
</g>
</g>
<defs>
<linearGradient id="paint0_linear_31_277" x1="548.099" y1="957.84" x2="1389.1" y2="116.84" gradientUnits="userSpaceOnUse">
<stop stop-color="#5EBCE5"/>
<stop offset="0.03125" stop-color="#5EBCE5"/>
<stop offset="0.0390625" stop-color="#5EBCE5"/>
<stop offset="0.0429688" stop-color="#62B9E5"/>
<stop offset="0.046875" stop-color="#66B6E5"/>
<stop offset="0.0507813" stop-color="#67B5E5"/>
<stop offset="0.0546875" stop-color="#68B5E5"/>
<stop offset="0.0585938" stop-color="#68B4E5"/>
<stop offset="0.0625" stop-color="#69B4E5"/>
<stop offset="0.0664062" stop-color="#6AB3E5"/>
<stop offset="0.0703125" stop-color="#6AB3E5"/>
<stop offset="0.0742188" stop-color="#6BB2E5"/>
<stop offset="0.078125" stop-color="#6CB2E5"/>
<stop offset="0.0820312" stop-color="#6CB1E5"/>
<stop offset="0.0859375" stop-color="#6DB1E5"/>
<stop offset="0.0898438" stop-color="#6EB0E5"/>
<stop offset="0.09375" stop-color="#6EB0E5"/>
<stop offset="0.0976563" stop-color="#6FAFE5"/>
<stop offset="0.101563" stop-color="#70AFE5"/>
<stop offset="0.105469" stop-color="#70AEE5"/>
<stop offset="0.109375" stop-color="#71AEE5"/>
<stop offset="0.113281" stop-color="#72ADE5"/>
<stop offset="0.117188" stop-color="#72ADE5"/>
<stop offset="0.121094" stop-color="#73ACE5"/>
<stop offset="0.125" stop-color="#74ACE5"/>
<stop offset="0.128906" stop-color="#74ABE5"/>
<stop offset="0.132812" stop-color="#75ABE5"/>
<stop offset="0.136719" stop-color="#75AAE5"/>
<stop offset="0.140625" stop-color="#76AAE5"/>
<stop offset="0.144531" stop-color="#77A9E5"/>
<stop offset="0.148438" stop-color="#77A9E5"/>
<stop offset="0.152344" stop-color="#78A8E5"/>
<stop offset="0.15625" stop-color="#79A8E5"/>
<stop offset="0.160156" stop-color="#79A7E5"/>
<stop offset="0.164063" stop-color="#7AA7E5"/>
<stop offset="0.167969" stop-color="#7BA6E5"/>
<stop offset="0.171875" stop-color="#7BA6E5"/>
<stop offset="0.175781" stop-color="#7CA5E5"/>
<stop offset="0.179688" stop-color="#7DA5E5"/>
<stop offset="0.183594" stop-color="#7DA4E5"/>
<stop offset="0.1875" stop-color="#7EA4E5"/>
<stop offset="0.191406" stop-color="#7FA3E5"/>
<stop offset="0.195313" stop-color="#7FA3E5"/>
<stop offset="0.199219" stop-color="#80A2E5"/>
<stop offset="0.203125" stop-color="#81A1E5"/>
<stop offset="0.207031" stop-color="#81A1E5"/>
<stop offset="0.210938" stop-color="#82A0E5"/>
<stop offset="0.214844" stop-color="#83A0E5"/>
<stop offset="0.21875" stop-color="#839FE5"/>
<stop offset="0.222656" stop-color="#849FE5"/>
<stop offset="0.226562" stop-color="#859EE5"/>
<stop offset="0.230469" stop-color="#859EE5"/>
<stop offset="0.234375" stop-color="#869DE5"/>
<stop offset="0.238281" stop-color="#869DE5"/>
<stop offset="0.242188" stop-color="#879CE5"/>
<stop offset="0.246094" stop-color="#889CE5"/>
<stop offset="0.25" stop-color="#889BE5"/>
<stop offset="0.253906" stop-color="#899BE5"/>
<stop offset="0.257812" stop-color="#8A9AE5"/>
<stop offset="0.261719" stop-color="#8A9AE5"/>
<stop offset="0.265625" stop-color="#8B99E5"/>
<stop offset="0.269531" stop-color="#8C99E5"/>
<stop offset="0.273438" stop-color="#8C98E5"/>
<stop offset="0.277344" stop-color="#8D98E5"/>
<stop offset="0.28125" stop-color="#8E97E5"/>
<stop offset="0.285156" stop-color="#8E97E6"/>
<stop offset="0.289062" stop-color="#8F96E6"/>
<stop offset="0.292969" stop-color="#9096E6"/>
<stop offset="0.296875" stop-color="#9095E6"/>
<stop offset="0.300781" stop-color="#9195E6"/>
<stop offset="0.304688" stop-color="#9294E6"/>
<stop offset="0.308594" stop-color="#9294E6"/>
<stop offset="0.3125" stop-color="#9393E6"/>
<stop offset="0.316406" stop-color="#9493E6"/>
<stop offset="0.320312" stop-color="#9492E6"/>
<stop offset="0.324219" stop-color="#9592E6"/>
<stop offset="0.328125" stop-color="#9691E6"/>
<stop offset="0.332031" stop-color="#9691E6"/>
<stop offset="0.335937" stop-color="#9790E6"/>
<stop offset="0.339844" stop-color="#9790E6"/>
<stop offset="0.34375" stop-color="#988FE6"/>
<stop offset="0.347656" stop-color="#998FE6"/>
<stop offset="0.351562" stop-color="#998EE6"/>
<stop offset="0.355469" stop-color="#9A8EE6"/>
<stop offset="0.359375" stop-color="#9B8DE6"/>
<stop offset="0.363281" stop-color="#9B8DE6"/>
<stop offset="0.367187" stop-color="#9C8CE6"/>
<stop offset="0.371094" stop-color="#9D8CE6"/>
<stop offset="0.375" stop-color="#9D8BE6"/>
<stop offset="0.378906" stop-color="#9E8BE6"/>
<stop offset="0.382813" stop-color="#9F8AE6"/>
<stop offset="0.386719" stop-color="#9F8AE6"/>
<stop offset="0.390625" stop-color="#A089E6"/>
<stop offset="0.394531" stop-color="#A189E6"/>
<stop offset="0.398438" stop-color="#A188E6"/>
<stop offset="0.402344" stop-color="#A288E6"/>
<stop offset="0.40625" stop-color="#A387E6"/>
<stop offset="0.410156" stop-color="#A387E6"/>
<stop offset="0.414063" stop-color="#A486E6"/>
<stop offset="0.417969" stop-color="#A586E6"/>
<stop offset="0.421875" stop-color="#A585E6"/>
<stop offset="0.425781" stop-color="#A685E6"/>
<stop offset="0.429688" stop-color="#A784E6"/>
<stop offset="0.433594" stop-color="#A784E6"/>
<stop offset="0.4375" stop-color="#A883E6"/>
<stop offset="0.441406" stop-color="#A883E6"/>
<stop offset="0.445312" stop-color="#A982E6"/>
<stop offset="0.449219" stop-color="#AA82E6"/>
<stop offset="0.453125" stop-color="#AA81E6"/>
<stop offset="0.457031" stop-color="#AB81E6"/>
<stop offset="0.460938" stop-color="#AC80E6"/>
<stop offset="0.464844" stop-color="#AC80E6"/>
<stop offset="0.46875" stop-color="#AD7FE6"/>
<stop offset="0.472656" stop-color="#AE7FE6"/>
<stop offset="0.476562" stop-color="#AE7EE6"/>
<stop offset="0.480469" stop-color="#AF7EE6"/>
<stop offset="0.484375" stop-color="#B07DE6"/>
<stop offset="0.488281" stop-color="#B07DE6"/>
<stop offset="0.492188" stop-color="#B17CE6"/>
<stop offset="0.496094" stop-color="#B27CE6"/>
<stop offset="0.5" stop-color="#B27BE6"/>
<stop offset="0.503906" stop-color="#B37BE6"/>
<stop offset="0.507812" stop-color="#B47AE6"/>
<stop offset="0.511719" stop-color="#B47AE6"/>
<stop offset="0.515625" stop-color="#B579E6"/>
<stop offset="0.519531" stop-color="#B679E6"/>
<stop offset="0.523438" stop-color="#B678E6"/>
<stop offset="0.527344" stop-color="#B778E5"/>
<stop offset="0.53125" stop-color="#B778E3"/>
<stop offset="0.535156" stop-color="#B777E2"/>
<stop offset="0.539062" stop-color="#B877E1"/>
<stop offset="0.542969" stop-color="#B877E0"/>
<stop offset="0.546875" stop-color="#B877DF"/>
<stop offset="0.550781" stop-color="#B976DD"/>
<stop offset="0.554688" stop-color="#B976DC"/>
<stop offset="0.558594" stop-color="#BA76DB"/>
<stop offset="0.5625" stop-color="#BA75DA"/>
<stop offset="0.566406" stop-color="#BA75D9"/>
<stop offset="0.570312" stop-color="#BB75D8"/>
<stop offset="0.574219" stop-color="#BB75D6"/>
<stop offset="0.578125" stop-color="#BC74D5"/>
<stop offset="0.582031" stop-color="#BC74D4"/>
<stop offset="0.585938" stop-color="#BC74D3"/>
<stop offset="0.589844" stop-color="#BD74D2"/>
<stop offset="0.59375" stop-color="#BD73D1"/>
<stop offset="0.597656" stop-color="#BE73CF"/>
<stop offset="0.601562" stop-color="#BE73CE"/>
<stop offset="0.605469" stop-color="#BE73CD"/>
<stop offset="0.609375" stop-color="#BF72CC"/>
<stop offset="0.613281" stop-color="#BF72CB"/>
<stop offset="0.617188" stop-color="#BF72C9"/>
<stop offset="0.621094" stop-color="#C072C8"/>
<stop offset="0.625" stop-color="#C071C7"/>
<stop offset="0.628906" stop-color="#C171C6"/>
<stop offset="0.632812" stop-color="#C171C5"/>
<stop offset="0.636719" stop-color="#C171C4"/>
<stop offset="0.640625" stop-color="#C270C2"/>
<stop offset="0.644531" stop-color="#C270C1"/>
<stop offset="0.648437" stop-color="#C370C0"/>
<stop offset="0.652344" stop-color="#C370BF"/>
<stop offset="0.65625" stop-color="#C36FBE"/>
<stop offset="0.660156" stop-color="#C46FBD"/>
<stop offset="0.664062" stop-color="#C46FBB"/>
<stop offset="0.667969" stop-color="#C56FBA"/>
<stop offset="0.671875" stop-color="#C56EB9"/>
<stop offset="0.675781" stop-color="#C56EB8"/>
<stop offset="0.679687" stop-color="#C66EB7"/>
<stop offset="0.683594" stop-color="#C66DB5"/>
<stop offset="0.6875" stop-color="#C66DB4"/>
<stop offset="0.691406" stop-color="#C76DB3"/>
<stop offset="0.695312" stop-color="#C76DB2"/>
<stop offset="0.699219" stop-color="#C86CB1"/>
<stop offset="0.703125" stop-color="#C86CB0"/>
<stop offset="0.707031" stop-color="#C86CAE"/>
<stop offset="0.710937" stop-color="#C96CAD"/>
<stop offset="0.714844" stop-color="#C96BAC"/>
<stop offset="0.71875" stop-color="#CA6BAB"/>
<stop offset="0.722656" stop-color="#CA6BAA"/>
<stop offset="0.726562" stop-color="#CA6BA8"/>
<stop offset="0.730469" stop-color="#CB6AA7"/>
<stop offset="0.734375" stop-color="#CB6AA6"/>
<stop offset="0.738281" stop-color="#CB6AA5"/>
<stop offset="0.742187" stop-color="#CC6AA4"/>
<stop offset="0.746094" stop-color="#CC69A3"/>
<stop offset="0.75" stop-color="#CD69A1"/>
<stop offset="0.753906" stop-color="#CD69A0"/>
<stop offset="0.757813" stop-color="#CD699F"/>
<stop offset="0.761719" stop-color="#CE689E"/>
<stop offset="0.765625" stop-color="#CE689D"/>
<stop offset="0.769531" stop-color="#CF689C"/>
<stop offset="0.773438" stop-color="#CF689A"/>
<stop offset="0.777344" stop-color="#CF6799"/>
<stop offset="0.78125" stop-color="#D06798"/>
<stop offset="0.785156" stop-color="#D06797"/>
<stop offset="0.789063" stop-color="#D16796"/>
<stop offset="0.792969" stop-color="#D16694"/>
<stop offset="0.796875" stop-color="#D16693"/>
<stop offset="0.800781" stop-color="#D26692"/>
<stop offset="0.804688" stop-color="#D26691"/>
<stop offset="0.808594" stop-color="#D26590"/>
<stop offset="0.8125" stop-color="#D3658F"/>
<stop offset="0.816406" stop-color="#D3658D"/>
<stop offset="0.820313" stop-color="#D4648C"/>
<stop offset="0.824219" stop-color="#D4648B"/>
<stop offset="0.828125" stop-color="#D4648A"/>
<stop offset="0.832031" stop-color="#D56489"/>
<stop offset="0.835938" stop-color="#D56388"/>
<stop offset="0.839844" stop-color="#D66386"/>
<stop offset="0.84375" stop-color="#D66385"/>
<stop offset="0.847656" stop-color="#D66384"/>
<stop offset="0.851563" stop-color="#D76283"/>
<stop offset="0.855469" stop-color="#D76282"/>
<stop offset="0.859375" stop-color="#D86280"/>
<stop offset="0.863281" stop-color="#D8627F"/>
<stop offset="0.867188" stop-color="#D8617E"/>
<stop offset="0.871094" stop-color="#D9617D"/>
<stop offset="0.875" stop-color="#D9617C"/>
<stop offset="0.878906" stop-color="#D9617B"/>
<stop offset="0.882812" stop-color="#DA6079"/>
<stop offset="0.886719" stop-color="#DA6078"/>
<stop offset="0.890625" stop-color="#DB6077"/>
<stop offset="0.894531" stop-color="#DB6076"/>
<stop offset="0.898438" stop-color="#DB5F75"/>
<stop offset="0.902344" stop-color="#DC5F73"/>
<stop offset="0.90625" stop-color="#DC5F72"/>
<stop offset="0.910156" stop-color="#DD5F71"/>
<stop offset="0.914062" stop-color="#DD5E70"/>
<stop offset="0.917969" stop-color="#DD5E6F"/>
<stop offset="0.921875" stop-color="#DE5E6E"/>
<stop offset="0.925781" stop-color="#DE5E6C"/>
<stop offset="0.929688" stop-color="#DF5D6B"/>
<stop offset="0.933594" stop-color="#DF5D6A"/>
<stop offset="0.9375" stop-color="#DF5D69"/>
<stop offset="0.941406" stop-color="#E05D68"/>
<stop offset="0.945312" stop-color="#E05C67"/>
<stop offset="0.949219" stop-color="#E05C65"/>
<stop offset="0.953125" stop-color="#E15C64"/>
<stop offset="0.957031" stop-color="#E15B63"/>
<stop offset="0.960938" stop-color="#E25B62"/>
<stop offset="0.96875" stop-color="#E25B61"/>
<stop offset="1" stop-color="#E25B61"/>
</linearGradient>
</defs>
</svg>
