<svg width="90" height="90" viewBox="0 0 90 90" fill="none" xmlns="http://www.w3.org/2000/svg">
<mask id="mask0_53_241" style="mask-type:luminance" maskUnits="userSpaceOnUse" x="8" y="12" width="73" height="67">
<path d="M8 12H81V78.8955H8V12Z" fill="white"/>
</mask>
<g mask="url(#mask0_53_241)">
<path d="M67.9676 34.1579C67.2177 33.9045 66.4362 33.6616 65.623 33.4292C65.7603 32.8906 65.8764 32.3625 65.9926 31.845C67.7564 23.3114 66.6052 16.4254 62.6447 14.1653C58.8426 12.0002 52.622 14.2604 46.3485 19.6678C45.7465 20.1853 45.134 20.745 44.532 21.3153C44.1306 20.9351 43.7293 20.5655 43.328 20.217C36.7483 14.4293 30.158 11.9897 26.1975 14.2604C22.3954 16.436 21.2759 22.8995 22.8707 30.9895C23.0291 31.7711 23.2086 32.5737 23.4093 33.387C22.4799 33.6404 21.5822 33.9256 20.7161 34.2213C13.0064 36.8828 8.07422 41.0545 8.07422 45.3846C8.07422 49.8627 13.3655 54.3512 21.4026 57.0655C22.0363 57.2873 22.6911 57.4879 23.367 57.678C23.1453 58.5546 22.9552 59.4101 22.7967 60.255C21.2759 68.1971 22.4588 74.5128 26.2503 76.6779C30.158 78.9063 36.7271 76.6145 43.1168 71.0804C43.6237 70.6474 44.1306 70.1827 44.6376 69.6969C45.2924 70.32 45.9472 70.9114 46.602 71.4712C52.7909 76.7518 58.906 78.8747 62.6869 76.7096C66.5946 74.4706 67.8725 67.6902 66.2144 59.4418C66.0982 58.8081 65.9504 58.1639 65.7814 57.5091C66.2461 57.3823 66.7002 57.2345 67.1332 57.0972C75.4873 54.3512 80.9264 49.926 80.9264 45.3846C80.9264 41.0439 75.8358 36.8405 67.9676 34.1579ZM66.1616 54.1717C65.7603 54.2984 65.3484 54.4251 64.9365 54.5413C64.0176 51.6581 62.7714 48.5847 61.2506 45.4058C62.6975 42.3007 63.8909 39.2696 64.7886 36.3969C65.5385 36.6082 66.2567 36.8405 66.9537 37.0729C73.7024 39.3752 77.8108 42.776 77.8108 45.3846C77.8108 48.1728 73.375 51.7954 66.1616 54.1717ZM63.1622 60.0438C63.9015 63.6874 63.9965 66.9826 63.5213 69.5596C63.0883 71.883 62.2117 73.425 61.1344 74.0376C58.832 75.3577 53.9316 73.6468 48.6298 69.1371C48.0278 68.6196 47.4152 68.0598 46.8027 67.479C48.8516 65.2611 50.9005 62.6736 52.9071 59.8009C56.424 59.4946 59.7509 58.9877 62.7714 58.2906C62.9193 58.8926 63.0566 59.4735 63.1622 60.0438ZM32.9145 73.8158C30.6755 74.5973 28.8801 74.6184 27.8028 74.0059C25.511 72.6963 24.5499 67.6268 25.8595 60.8253C26.0074 60.0543 26.1869 59.2517 26.3876 58.4279C29.3659 59.0827 32.6716 59.558 36.1991 59.8431C38.2163 62.6524 40.3286 65.2294 42.4514 67.4895C41.9867 67.9331 41.5326 68.3556 41.0679 68.7569C38.2374 71.2071 35.407 72.9392 32.9145 73.8158ZM22.406 54.1506C18.8573 52.9466 15.9213 51.3835 13.9146 49.6725C12.1087 48.1517 11.1898 46.6203 11.1898 45.3846C11.1898 42.7654 15.1503 39.4069 21.7406 37.1362C22.5433 36.8511 23.3776 36.5976 24.2436 36.3547C25.1625 39.2907 26.3559 42.3641 27.8028 45.4586C26.3348 48.6164 25.1202 51.732 24.2014 54.7103C23.5888 54.5308 22.9868 54.3407 22.406 54.1506ZM25.9334 30.3981C24.5605 23.4699 25.4688 18.242 27.7606 16.9324C30.1897 15.5277 35.5865 17.5238 41.258 22.5193C41.6276 22.8362 41.9867 23.1741 42.3563 23.5227C40.2441 25.7722 38.1424 28.3281 36.1463 31.1268C32.7244 31.4437 29.4398 31.9506 26.4298 32.6265C26.2397 31.8661 26.0707 31.1268 25.9334 30.3981ZM57.3429 38.0868C56.6247 36.8511 55.8854 35.6471 55.1356 34.4748C57.4591 34.7705 59.6875 35.1507 61.7786 35.626C61.145 37.6221 60.3634 39.7026 59.4446 41.836C58.7898 40.6004 58.0822 39.3436 57.3429 38.0868ZM44.532 25.7194C45.9683 27.2614 47.4047 28.9829 48.8199 30.8522C47.3941 30.7783 45.9578 30.7466 44.5003 30.7466C43.0639 30.7466 41.6276 30.7783 40.2124 30.8417C41.6276 28.9934 43.0745 27.2825 44.532 25.7194ZM31.6366 38.1079C30.9184 39.3436 30.2319 40.5898 29.5877 41.836C28.6794 39.7132 27.8979 37.6115 27.2642 35.5943C29.3448 35.1296 31.5626 34.7599 33.8756 34.4748C33.1046 35.6576 32.3653 36.8616 31.6366 38.1079ZM33.9389 56.5269C31.5521 56.2628 29.3025 55.9037 27.2219 55.4602C27.8662 53.4007 28.6583 51.2673 29.5877 49.0917C30.2425 50.3379 30.929 51.5842 31.6471 52.8198C32.3864 54.0872 33.1574 55.3229 33.9389 56.5269ZM44.6165 65.2716C43.1484 63.698 41.6698 61.9554 40.2335 60.0755C41.6276 60.1283 43.0534 60.16 44.5003 60.16C45.9894 60.16 47.4575 60.1283 48.8938 60.0649C47.4786 61.9765 46.0422 63.7191 44.6165 65.2716ZM59.4763 48.9755C60.4479 51.1723 61.2717 53.3056 61.9159 55.3229C59.8037 55.7981 57.5224 56.1889 55.125 56.4741C55.8854 55.2912 56.6247 54.0555 57.364 52.7987C58.1033 51.5313 58.8109 50.2534 59.4763 48.9755ZM54.6603 51.2567C53.5302 53.2212 52.3579 55.08 51.1751 56.8437C49.01 57.0021 46.7815 57.076 44.5003 57.076C42.2296 57.076 40.0328 57.0127 37.91 56.8754C36.6743 55.0905 35.4809 53.2106 34.3403 51.2779C33.2208 49.3451 32.1752 47.4019 31.2352 45.4586C32.1752 43.5258 33.2102 41.572 34.3403 39.6498C35.4598 37.7171 36.6426 35.8478 37.8678 34.0734C40.0328 33.915 42.2507 33.8305 44.5003 33.8305C46.7604 33.8305 48.9783 33.915 51.1434 34.0734C52.3474 35.8372 53.5302 37.696 54.6603 39.6287C55.8009 41.5826 56.8465 43.5258 57.797 45.4163C56.8465 47.349 55.8009 49.3029 54.6603 51.2567ZM61.0816 16.8373C63.5213 18.2314 64.4718 23.8501 62.9404 31.2219C62.8453 31.6866 62.7292 32.1724 62.613 32.6582C59.5924 31.9612 56.3079 31.4437 52.8754 31.1268C50.8688 28.307 48.7988 25.7405 46.7182 23.5121C47.2779 22.984 47.8377 22.4771 48.3869 21.9913C53.7731 17.3548 58.8003 15.5277 61.0816 16.8373ZM44.5003 38.9422C48.0911 38.9422 51.0061 41.8255 51.0061 45.3846C51.0061 48.9438 48.0911 51.8376 44.5003 51.8376C40.9094 51.8376 37.9945 48.9438 37.9945 45.3846C37.9945 41.8255 40.9094 38.9422 44.5003 38.9422Z" fill="url(#paint0_linear_53_241)"/>
</g>
<defs>
<linearGradient id="paint0_linear_53_241" x1="8.8398" y1="78.2234" x2="72.5274" y2="5.95005" gradientUnits="userSpaceOnUse">
<stop stop-color="#5EBCE5"/>
<stop offset="0.03125" stop-color="#5EBCE5"/>
<stop offset="0.0390625" stop-color="#5EBCE5"/>
<stop offset="0.0429688" stop-color="#62B9E5"/>
<stop offset="0.046875" stop-color="#66B6E5"/>
<stop offset="0.0507813" stop-color="#67B5E5"/>
<stop offset="0.0546875" stop-color="#68B5E5"/>
<stop offset="0.0585938" stop-color="#68B4E5"/>
<stop offset="0.0625" stop-color="#69B4E5"/>
<stop offset="0.0664062" stop-color="#6AB3E5"/>
<stop offset="0.0703125" stop-color="#6AB3E5"/>
<stop offset="0.0742188" stop-color="#6BB2E5"/>
<stop offset="0.078125" stop-color="#6CB2E5"/>
<stop offset="0.0820312" stop-color="#6CB1E5"/>
<stop offset="0.0859375" stop-color="#6DB1E5"/>
<stop offset="0.0898438" stop-color="#6EB0E5"/>
<stop offset="0.09375" stop-color="#6EB0E5"/>
<stop offset="0.0976563" stop-color="#6FAFE5"/>
<stop offset="0.101563" stop-color="#70AFE5"/>
<stop offset="0.105469" stop-color="#70AEE5"/>
<stop offset="0.109375" stop-color="#71AEE5"/>
<stop offset="0.113281" stop-color="#72ADE5"/>
<stop offset="0.117188" stop-color="#72ADE5"/>
<stop offset="0.121094" stop-color="#73ACE5"/>
<stop offset="0.125" stop-color="#74ACE5"/>
<stop offset="0.128906" stop-color="#74ABE5"/>
<stop offset="0.132812" stop-color="#75ABE5"/>
<stop offset="0.136719" stop-color="#75AAE5"/>
<stop offset="0.140625" stop-color="#76AAE5"/>
<stop offset="0.144531" stop-color="#77A9E5"/>
<stop offset="0.148438" stop-color="#77A9E5"/>
<stop offset="0.152344" stop-color="#78A8E5"/>
<stop offset="0.15625" stop-color="#79A8E5"/>
<stop offset="0.160156" stop-color="#79A7E5"/>
<stop offset="0.164063" stop-color="#7AA7E5"/>
<stop offset="0.167969" stop-color="#7BA6E5"/>
<stop offset="0.171875" stop-color="#7BA6E5"/>
<stop offset="0.175781" stop-color="#7CA5E5"/>
<stop offset="0.179688" stop-color="#7DA5E5"/>
<stop offset="0.183594" stop-color="#7DA4E5"/>
<stop offset="0.1875" stop-color="#7EA4E5"/>
<stop offset="0.191406" stop-color="#7FA3E5"/>
<stop offset="0.195313" stop-color="#7FA3E5"/>
<stop offset="0.199219" stop-color="#80A2E5"/>
<stop offset="0.203125" stop-color="#81A1E5"/>
<stop offset="0.207031" stop-color="#81A1E5"/>
<stop offset="0.210938" stop-color="#82A0E5"/>
<stop offset="0.214844" stop-color="#83A0E5"/>
<stop offset="0.21875" stop-color="#839FE5"/>
<stop offset="0.222656" stop-color="#849FE5"/>
<stop offset="0.226562" stop-color="#859EE5"/>
<stop offset="0.230469" stop-color="#859EE5"/>
<stop offset="0.234375" stop-color="#869DE5"/>
<stop offset="0.238281" stop-color="#869DE5"/>
<stop offset="0.242188" stop-color="#879CE5"/>
<stop offset="0.246094" stop-color="#889CE5"/>
<stop offset="0.25" stop-color="#889BE5"/>
<stop offset="0.253906" stop-color="#899BE5"/>
<stop offset="0.257812" stop-color="#8A9AE5"/>
<stop offset="0.261719" stop-color="#8A9AE5"/>
<stop offset="0.265625" stop-color="#8B99E5"/>
<stop offset="0.269531" stop-color="#8C99E5"/>
<stop offset="0.273438" stop-color="#8C98E5"/>
<stop offset="0.277344" stop-color="#8D98E5"/>
<stop offset="0.28125" stop-color="#8E97E5"/>
<stop offset="0.285156" stop-color="#8E97E6"/>
<stop offset="0.289062" stop-color="#8F96E6"/>
<stop offset="0.292969" stop-color="#9096E6"/>
<stop offset="0.296875" stop-color="#9095E6"/>
<stop offset="0.300781" stop-color="#9195E6"/>
<stop offset="0.304688" stop-color="#9294E6"/>
<stop offset="0.308594" stop-color="#9294E6"/>
<stop offset="0.3125" stop-color="#9393E6"/>
<stop offset="0.316406" stop-color="#9493E6"/>
<stop offset="0.320312" stop-color="#9492E6"/>
<stop offset="0.324219" stop-color="#9592E6"/>
<stop offset="0.328125" stop-color="#9691E6"/>
<stop offset="0.332031" stop-color="#9691E6"/>
<stop offset="0.335937" stop-color="#9790E6"/>
<stop offset="0.339844" stop-color="#9790E6"/>
<stop offset="0.34375" stop-color="#988FE6"/>
<stop offset="0.347656" stop-color="#998FE6"/>
<stop offset="0.351562" stop-color="#998EE6"/>
<stop offset="0.355469" stop-color="#9A8EE6"/>
<stop offset="0.359375" stop-color="#9B8DE6"/>
<stop offset="0.363281" stop-color="#9B8DE6"/>
<stop offset="0.367187" stop-color="#9C8CE6"/>
<stop offset="0.371094" stop-color="#9D8CE6"/>
<stop offset="0.375" stop-color="#9D8BE6"/>
<stop offset="0.378906" stop-color="#9E8BE6"/>
<stop offset="0.382813" stop-color="#9F8AE6"/>
<stop offset="0.386719" stop-color="#9F8AE6"/>
<stop offset="0.390625" stop-color="#A089E6"/>
<stop offset="0.394531" stop-color="#A189E6"/>
<stop offset="0.398438" stop-color="#A188E6"/>
<stop offset="0.402344" stop-color="#A288E6"/>
<stop offset="0.40625" stop-color="#A387E6"/>
<stop offset="0.410156" stop-color="#A387E6"/>
<stop offset="0.414063" stop-color="#A486E6"/>
<stop offset="0.417969" stop-color="#A586E6"/>
<stop offset="0.421875" stop-color="#A585E6"/>
<stop offset="0.425781" stop-color="#A685E6"/>
<stop offset="0.429688" stop-color="#A784E6"/>
<stop offset="0.433594" stop-color="#A784E6"/>
<stop offset="0.4375" stop-color="#A883E6"/>
<stop offset="0.441406" stop-color="#A883E6"/>
<stop offset="0.445312" stop-color="#A982E6"/>
<stop offset="0.449219" stop-color="#AA82E6"/>
<stop offset="0.453125" stop-color="#AA81E6"/>
<stop offset="0.457031" stop-color="#AB81E6"/>
<stop offset="0.460938" stop-color="#AC80E6"/>
<stop offset="0.464844" stop-color="#AC80E6"/>
<stop offset="0.46875" stop-color="#AD7FE6"/>
<stop offset="0.472656" stop-color="#AE7FE6"/>
<stop offset="0.476562" stop-color="#AE7EE6"/>
<stop offset="0.480469" stop-color="#AF7EE6"/>
<stop offset="0.484375" stop-color="#B07DE6"/>
<stop offset="0.488281" stop-color="#B07DE6"/>
<stop offset="0.492188" stop-color="#B17CE6"/>
<stop offset="0.496094" stop-color="#B27CE6"/>
<stop offset="0.5" stop-color="#B27BE6"/>
<stop offset="0.503906" stop-color="#B37BE6"/>
<stop offset="0.507812" stop-color="#B47AE6"/>
<stop offset="0.511719" stop-color="#B47AE6"/>
<stop offset="0.515625" stop-color="#B579E6"/>
<stop offset="0.519531" stop-color="#B679E6"/>
<stop offset="0.523438" stop-color="#B678E6"/>
<stop offset="0.527344" stop-color="#B778E5"/>
<stop offset="0.53125" stop-color="#B778E3"/>
<stop offset="0.535156" stop-color="#B777E2"/>
<stop offset="0.539062" stop-color="#B877E1"/>
<stop offset="0.542969" stop-color="#B877E0"/>
<stop offset="0.546875" stop-color="#B877DF"/>
<stop offset="0.550781" stop-color="#B976DD"/>
<stop offset="0.554688" stop-color="#B976DC"/>
<stop offset="0.558594" stop-color="#BA76DB"/>
<stop offset="0.5625" stop-color="#BA75DA"/>
<stop offset="0.566406" stop-color="#BA75D9"/>
<stop offset="0.570312" stop-color="#BB75D8"/>
<stop offset="0.574219" stop-color="#BB75D6"/>
<stop offset="0.578125" stop-color="#BC74D5"/>
<stop offset="0.582031" stop-color="#BC74D4"/>
<stop offset="0.585938" stop-color="#BC74D3"/>
<stop offset="0.589844" stop-color="#BD74D2"/>
<stop offset="0.59375" stop-color="#BD73D1"/>
<stop offset="0.597656" stop-color="#BE73CF"/>
<stop offset="0.601562" stop-color="#BE73CE"/>
<stop offset="0.605469" stop-color="#BE73CD"/>
<stop offset="0.609375" stop-color="#BF72CC"/>
<stop offset="0.613281" stop-color="#BF72CB"/>
<stop offset="0.617188" stop-color="#BF72C9"/>
<stop offset="0.621094" stop-color="#C072C8"/>
<stop offset="0.625" stop-color="#C071C7"/>
<stop offset="0.628906" stop-color="#C171C6"/>
<stop offset="0.632812" stop-color="#C171C5"/>
<stop offset="0.636719" stop-color="#C171C4"/>
<stop offset="0.640625" stop-color="#C270C2"/>
<stop offset="0.644531" stop-color="#C270C1"/>
<stop offset="0.648437" stop-color="#C370C0"/>
<stop offset="0.652344" stop-color="#C370BF"/>
<stop offset="0.65625" stop-color="#C36FBE"/>
<stop offset="0.660156" stop-color="#C46FBD"/>
<stop offset="0.664062" stop-color="#C46FBB"/>
<stop offset="0.667969" stop-color="#C56FBA"/>
<stop offset="0.671875" stop-color="#C56EB9"/>
<stop offset="0.675781" stop-color="#C56EB8"/>
<stop offset="0.679687" stop-color="#C66EB7"/>
<stop offset="0.683594" stop-color="#C66DB5"/>
<stop offset="0.6875" stop-color="#C66DB4"/>
<stop offset="0.691406" stop-color="#C76DB3"/>
<stop offset="0.695312" stop-color="#C76DB2"/>
<stop offset="0.699219" stop-color="#C86CB1"/>
<stop offset="0.703125" stop-color="#C86CB0"/>
<stop offset="0.707031" stop-color="#C86CAE"/>
<stop offset="0.710937" stop-color="#C96CAD"/>
<stop offset="0.714844" stop-color="#C96BAC"/>
<stop offset="0.71875" stop-color="#CA6BAB"/>
<stop offset="0.722656" stop-color="#CA6BAA"/>
<stop offset="0.726562" stop-color="#CA6BA8"/>
<stop offset="0.730469" stop-color="#CB6AA7"/>
<stop offset="0.734375" stop-color="#CB6AA6"/>
<stop offset="0.738281" stop-color="#CB6AA5"/>
<stop offset="0.742187" stop-color="#CC6AA4"/>
<stop offset="0.746094" stop-color="#CC69A3"/>
<stop offset="0.75" stop-color="#CD69A1"/>
<stop offset="0.753906" stop-color="#CD69A0"/>
<stop offset="0.757813" stop-color="#CD699F"/>
<stop offset="0.761719" stop-color="#CE689E"/>
<stop offset="0.765625" stop-color="#CE689D"/>
<stop offset="0.769531" stop-color="#CF689C"/>
<stop offset="0.773438" stop-color="#CF689A"/>
<stop offset="0.777344" stop-color="#CF6799"/>
<stop offset="0.78125" stop-color="#D06798"/>
<stop offset="0.785156" stop-color="#D06797"/>
<stop offset="0.789063" stop-color="#D16796"/>
<stop offset="0.792969" stop-color="#D16694"/>
<stop offset="0.796875" stop-color="#D16693"/>
<stop offset="0.800781" stop-color="#D26692"/>
<stop offset="0.804688" stop-color="#D26691"/>
<stop offset="0.808594" stop-color="#D26590"/>
<stop offset="0.8125" stop-color="#D3658F"/>
<stop offset="0.816406" stop-color="#D3658D"/>
<stop offset="0.820313" stop-color="#D4648C"/>
<stop offset="0.824219" stop-color="#D4648B"/>
<stop offset="0.828125" stop-color="#D4648A"/>
<stop offset="0.832031" stop-color="#D56489"/>
<stop offset="0.835938" stop-color="#D56388"/>
<stop offset="0.839844" stop-color="#D66386"/>
<stop offset="0.84375" stop-color="#D66385"/>
<stop offset="0.847656" stop-color="#D66384"/>
<stop offset="0.851563" stop-color="#D76283"/>
<stop offset="0.855469" stop-color="#D76282"/>
<stop offset="0.859375" stop-color="#D86280"/>
<stop offset="0.863281" stop-color="#D8627F"/>
<stop offset="0.867188" stop-color="#D8617E"/>
<stop offset="0.871094" stop-color="#D9617D"/>
<stop offset="0.875" stop-color="#D9617C"/>
<stop offset="0.878906" stop-color="#D9617B"/>
<stop offset="0.882812" stop-color="#DA6079"/>
<stop offset="0.886719" stop-color="#DA6078"/>
<stop offset="0.890625" stop-color="#DB6077"/>
<stop offset="0.894531" stop-color="#DB6076"/>
<stop offset="0.898438" stop-color="#DB5F75"/>
<stop offset="0.902344" stop-color="#DC5F73"/>
<stop offset="0.90625" stop-color="#DC5F72"/>
<stop offset="0.910156" stop-color="#DD5F71"/>
<stop offset="0.914062" stop-color="#DD5E70"/>
<stop offset="0.917969" stop-color="#DD5E6F"/>
<stop offset="0.921875" stop-color="#DE5E6E"/>
<stop offset="0.925781" stop-color="#DE5E6C"/>
<stop offset="0.929688" stop-color="#DF5D6B"/>
<stop offset="0.933594" stop-color="#DF5D6A"/>
<stop offset="0.9375" stop-color="#DF5D69"/>
<stop offset="0.941406" stop-color="#E05D68"/>
<stop offset="0.945312" stop-color="#E05C67"/>
<stop offset="0.949219" stop-color="#E05C65"/>
<stop offset="0.953125" stop-color="#E15C64"/>
<stop offset="0.957031" stop-color="#E15B63"/>
<stop offset="0.960938" stop-color="#E25B62"/>
<stop offset="0.96875" stop-color="#E25B61"/>
<stop offset="1" stop-color="#E25B61"/>
</linearGradient>
</defs>
</svg>
