<svg width="165" height="70" viewBox="0 0 165 70" fill="none" xmlns="http://www.w3.org/2000/svg">
<g filter="url(#filter0_i_9_138)">
<path d="M12.56 31.76C9.97333 31.76 7.78667 31.3467 6 30.52C4.24 29.6933 2.89333 28.56 1.96 27.12C1.02667 25.6533 0.56 24 0.56 22.16H6.12C6.12 22.9333 6.33333 23.6933 6.76 24.44C7.18667 25.16 7.86667 25.7467 8.8 26.2C9.76 26.6533 11.0133 26.88 12.56 26.88C13.9467 26.88 15.1067 26.68 16.04 26.28C16.9733 25.88 17.6667 25.36 18.12 24.72C18.5733 24.0533 18.8 23.3067 18.8 22.48C18.8 21.44 18.36 20.6133 17.48 20C16.6 19.36 15.24 18.96 13.4 18.8L10.84 18.6C8.04 18.36 5.8 17.4933 4.12 16C2.46667 14.48 1.64 12.48 1.64 10C1.64 8.13333 2.08 6.53333 2.96 5.2C3.84 3.84 5.06667 2.8 6.64 2.08C8.24 1.33333 10.1067 0.959998 12.24 0.959998C14.4533 0.959998 16.36 1.34666 17.96 2.12C19.56 2.89333 20.8 3.98667 21.68 5.4C22.56 6.78667 23 8.42667 23 10.32H17.44C17.44 9.52 17.24 8.78666 16.84 8.12C16.4667 7.42666 15.8933 6.88 15.12 6.48C14.3733 6.05333 13.4133 5.84 12.24 5.84C11.12 5.84 10.1867 6.02667 9.44 6.4C8.69333 6.77333 8.13333 7.28 7.76 7.92C7.38667 8.56 7.2 9.25333 7.2 10C7.2 10.9067 7.53333 11.7067 8.2 12.4C8.86667 13.0667 9.92 13.4533 11.36 13.56L13.92 13.8C16 13.96 17.8267 14.4 19.4 15.12C20.9733 15.84 22.1867 16.8133 23.04 18.04C23.92 19.2667 24.36 20.7467 24.36 22.48C24.36 24.32 23.88 25.9467 22.92 27.36C21.96 28.7467 20.5867 29.8267 18.8 30.6C17.04 31.3733 14.96 31.76 12.56 31.76ZM31.9731 31V5.45H36.9431V31H31.9731ZM43.0041 31L51.9991 17.385L52.0341 17.98L43.7741 5.45H49.3041L54.8341 14.025H55.5691L61.0641 5.45H66.3841L58.0191 18.085L57.9491 17.49L67.1541 31H61.6591L55.2191 21.41H54.4841L48.3241 31H43.0041ZM73.6203 31V1.8H79.3003V31H73.6203ZM78.5003 18.84V14.04L90.1803 14V18.8L78.5003 18.84ZM78.5003 6.6V1.8H90.7403V6.6H78.5003ZM98.3531 31V5.45H103.218V31H98.3531ZM102.518 31V26.8H114.103V31H102.518ZM102.518 20.115V15.915H113.193V20.115H102.518ZM102.518 9.65V5.45H113.823V9.65H102.518ZM121.653 31V5.45H126.518V31H121.653ZM125.818 31V26.8H137.403V31H125.818ZM125.818 20.115V15.915H136.493V20.115H125.818ZM125.818 9.65V5.45H137.123V9.65H125.818ZM149.992 31V9.125H154.962V31H149.992ZM142.607 9.825V5.45H162.347V9.825H142.607ZM11.57 69.57C9.59 69.57 7.89 69.22 6.47 68.52C5.05 67.82 3.89 66.91 2.99 65.79C2.11 64.67 1.46 63.45 1.04 62.13C0.62 60.81 0.41 59.54 0.41 58.32V57.66C0.41 56.3 0.62 54.96 1.04 53.64C1.48 52.32 2.15 51.12 3.05 50.04C3.95 48.96 5.09 48.1 6.47 47.46C7.87 46.8 9.52 46.47 11.42 46.47C13.4 46.47 15.12 46.83 16.58 47.55C18.06 48.25 19.24 49.25 20.12 50.55C21 51.83 21.53 53.33 21.71 55.05H17.42C17.26 54.05 16.9 53.21 16.34 52.53C15.8 51.83 15.11 51.31 14.27 50.97C13.43 50.61 12.48 50.43 11.42 50.43C10.34 50.43 9.38 50.62 8.54 51C7.7 51.36 7 51.88 6.44 52.56C5.88 53.24 5.45 54.04 5.15 54.96C4.87 55.88 4.73 56.9 4.73 58.02C4.73 59.1 4.87 60.1 5.15 61.02C5.45 61.94 5.89 62.75 6.47 63.45C7.05 64.13 7.76 64.66 8.6 65.04C9.46 65.42 10.45 65.61 11.57 65.61C13.21 65.61 14.59 65.21 15.71 64.41C16.85 63.59 17.54 62.45 17.78 60.99H22.07C21.87 62.55 21.34 63.98 20.48 65.28C19.62 66.58 18.44 67.62 16.94 68.4C15.44 69.18 13.65 69.57 11.57 69.57ZM27.7648 69V46.95H32.0248V69H27.7648ZM41.1448 69L34.4248 59.46H39.1948L46.1248 69H41.1448ZM30.7648 61.68V58.23H36.3448C37.1248 58.23 37.7948 58.07 38.3548 57.75C38.9348 57.43 39.3848 56.98 39.7048 56.4C40.0248 55.82 40.1848 55.16 40.1848 54.42C40.1848 53.66 40.0248 52.99 39.7048 52.41C39.3848 51.83 38.9348 51.38 38.3548 51.06C37.7948 50.74 37.1248 50.58 36.3448 50.58H30.7648V46.95H35.8948C37.6548 46.95 39.1748 47.21 40.4548 47.73C41.7548 48.25 42.7548 49.04 43.4548 50.1C44.1548 51.16 44.5048 52.49 44.5048 54.09V54.57C44.5048 56.19 44.1448 57.52 43.4248 58.56C42.7248 59.6 41.7348 60.38 40.4548 60.9C39.1748 61.42 37.6548 61.68 35.8948 61.68H30.7648ZM51.4566 69V47.1H55.6266V69H51.4566ZM55.0266 69V65.4H64.9566V69H55.0266ZM55.0266 59.67V56.07H64.1766V59.67H55.0266ZM55.0266 50.7V47.1H64.7166V50.7H55.0266ZM69.2677 69L76.7377 47.1H83.6977L91.3777 69H86.9977L80.4877 50.01L82.0177 50.67H78.2677L79.8277 50.01L73.5277 69H69.2677ZM74.4877 63.18L75.8377 59.58H84.7177L86.0377 63.18H74.4877ZM99.2052 69V50.25H103.465V69H99.2052ZM92.8752 50.85V47.1H109.795V50.85H92.8752ZM115.356 69V47.1H119.616V69H115.356ZM132.101 69L125.111 47.1H129.521L135.311 66.06L134.051 65.46H137.291L136.001 66.06L141.341 47.1H145.601L139.121 69H132.101ZM151.136 69V47.1H155.306V69H151.136ZM154.706 69V65.4H164.636V69H154.706ZM154.706 59.67V56.07H163.856V59.67H154.706ZM154.706 50.7V47.1H164.396V50.7H154.706Z" fill="url(#paint0_linear_9_138)"/>
</g>
<defs>
<filter id="filter0_i_9_138" x="0.410156" y="0.959961" width="164.226" height="72.6101" filterUnits="userSpaceOnUse" color-interpolation-filters="sRGB">
<feFlood flood-opacity="0" result="BackgroundImageFix"/>
<feBlend mode="normal" in="SourceGraphic" in2="BackgroundImageFix" result="shape"/>
<feColorMatrix in="SourceAlpha" type="matrix" values="0 0 0 0 0 0 0 0 0 0 0 0 0 0 0 0 0 0 127 0" result="hardAlpha"/>
<feOffset dy="4"/>
<feGaussianBlur stdDeviation="2"/>
<feComposite in2="hardAlpha" operator="arithmetic" k2="-1" k3="1"/>
<feColorMatrix type="matrix" values="0 0 0 0 0 0 0 0 0 0 0 0 0 0 0 0 0 0 0.25 0"/>
<feBlend mode="normal" in2="shape" result="effect1_innerShadow_9_138"/>
</filter>
<linearGradient id="paint0_linear_9_138" x1="83" y1="-8" x2="83" y2="78" gradientUnits="userSpaceOnUse">
<stop stop-color="#222222"/>
<stop offset="0.411458" stop-color="#BABABA"/>
<stop offset="1" stop-color="#DBD7D7"/>
</linearGradient>
</defs>
</svg>
