<svg id="visual" viewBox="0 0 900 150" width="900" height="150" xmlns="http://www.w3.org/2000/svg" xmlns:xlink="http://www.w3.org/1999/xlink" version="1.1"><rect x="0" y="0" width="900" height="150" fill="#3C173E"></rect><path d="M0 49L21.5 53.2C43 57.3 86 65.7 128.8 66C171.7 66.3 214.3 58.7 257.2 54.3C300 50 343 49 385.8 50.7C428.7 52.3 471.3 56.7 514.2 65.3C557 74 600 87 642.8 91.5C685.7 96 728.3 92 771.2 90.7C814 89.3 857 90.7 878.5 91.3L900 92L900 151L878.5 151C857 151 814 151 771.2 151C728.3 151 685.7 151 642.8 151C600 151 557 151 514.2 151C471.3 151 428.7 151 385.8 151C343 151 300 151 257.2 151C214.3 151 171.7 151 128.8 151C86 151 43 151 21.5 151L0 151Z" fill="#121212" stroke-linecap="round" stroke-linejoin="miter"></path></svg>