<svg width="25" height="25" viewBox="0 0 25 25" fill="none" xmlns="http://www.w3.org/2000/svg">
<g clip-path="url(#clip0_2_4)">
<rect width="25" height="25" rx="7" fill="url(#paint0_linear_2_4)"/>
<path d="M6.88636 6.63636C6.85227 6.34848 6.71402 6.125 6.47159 5.96591C6.22917 5.80682 5.93182 5.72727 5.57955 5.72727C5.32197 5.72727 5.09659 5.76894 4.90341 5.85227C4.71212 5.93561 4.5625 6.05019 4.45455 6.19602C4.34848 6.34186 4.29545 6.50758 4.29545 6.69318C4.29545 6.84848 4.33239 6.98201 4.40625 7.09375C4.48201 7.2036 4.5786 7.29545 4.69602 7.36932C4.81345 7.44129 4.93655 7.50095 5.06534 7.5483C5.19413 7.59375 5.3125 7.63068 5.42045 7.65909L6.01136 7.81818C6.16288 7.85795 6.33144 7.91288 6.51705 7.98295C6.70455 8.05303 6.88352 8.14867 7.05398 8.26989C7.22633 8.3892 7.36837 8.54261 7.48011 8.73011C7.59186 8.91761 7.64773 9.14773 7.64773 9.42045C7.64773 9.73485 7.56534 10.0189 7.40057 10.2727C7.23769 10.5265 6.99905 10.7282 6.68466 10.8778C6.37216 11.0275 5.99242 11.1023 5.54545 11.1023C5.12879 11.1023 4.76799 11.035 4.46307 10.9006C4.16004 10.7661 3.9214 10.5786 3.74716 10.3381C3.57481 10.0975 3.47727 9.81818 3.45455 9.5H4.18182C4.20076 9.7197 4.27462 9.90152 4.40341 10.0455C4.53409 10.1875 4.69886 10.2936 4.89773 10.3636C5.09848 10.4318 5.31439 10.4659 5.54545 10.4659C5.81439 10.4659 6.05587 10.4223 6.26989 10.3352C6.4839 10.2462 6.65341 10.1231 6.77841 9.96591C6.90341 9.80682 6.96591 9.62121 6.96591 9.40909C6.96591 9.21591 6.91193 9.05871 6.80398 8.9375C6.69602 8.81629 6.55398 8.7178 6.37784 8.64205C6.2017 8.56629 6.01136 8.5 5.80682 8.44318L5.09091 8.23864C4.63636 8.10795 4.27652 7.9214 4.01136 7.67898C3.74621 7.43655 3.61364 7.11932 3.61364 6.72727C3.61364 6.40151 3.7017 6.11742 3.87784 5.875C4.05587 5.63068 4.29451 5.44129 4.59375 5.30682C4.89489 5.17045 5.23106 5.10227 5.60227 5.10227C5.97727 5.10227 6.31061 5.16951 6.60227 5.30398C6.89394 5.43655 7.125 5.61837 7.29545 5.84943C7.4678 6.08049 7.55871 6.3428 7.56818 6.63636H6.88636ZM8.7152 11V6.63636H9.38565V11H8.7152ZM9.05611 5.90909C8.92543 5.90909 8.81274 5.86458 8.71804 5.77557C8.62524 5.68655 8.57884 5.57955 8.57884 5.45455C8.57884 5.32955 8.62524 5.22254 8.71804 5.13352C8.81274 5.04451 8.92543 5 9.05611 5C9.18679 5 9.29853 5.04451 9.39134 5.13352C9.48603 5.22254 9.53338 5.32955 9.53338 5.45455C9.53338 5.57955 9.48603 5.68655 9.39134 5.77557C9.29853 5.86458 9.18679 5.90909 9.05611 5.90909ZM11.1136 6.63636L12.1591 8.42045L13.2045 6.63636H13.9773L12.5682 8.81818L13.9773 11H13.2045L12.1591 9.30682L11.1136 11H10.3409L11.7273 8.81818L10.3409 6.63636H11.1136ZM3.70455 18V12.1818H7.19318V12.8068H4.40909V14.7727H6.93182V15.3977H4.40909V18H3.70455ZM8.39986 18V12.1818H11.9112V12.8068H9.1044V14.7727H11.7294V15.3977H9.1044V17.375H11.9567V18H8.39986ZM13.1811 18V12.1818H16.6925V12.8068H13.8857V14.7727H16.5107V15.3977H13.8857V17.375H16.7379V18H13.1811ZM17.6442 12.8068V12.1818H22.0078V12.8068H20.1783V18H19.4737V12.8068H17.6442Z" fill="white"/>
</g>
<defs>
<linearGradient id="paint0_linear_2_4" x1="12.5" y1="0" x2="12.5" y2="25" gradientUnits="userSpaceOnUse">
<stop stop-color="#A93DFF"/>
<stop offset="1" stop-color="#5C36F8"/>
</linearGradient>
<clipPath id="clip0_2_4">
<rect width="25" height="25" fill="white"/>
</clipPath>
</defs>
</svg>
