<svg id="visual" viewBox="0 0 900 150" width="900" height="150" xmlns="http://www.w3.org/2000/svg" xmlns:xlink="http://www.w3.org/1999/xlink" version="1.1"><rect x="0" y="0" width="900" height="150" fill="#3C173E"></rect><path d="M0 78L21.5 75.7C43 73.3 86 68.7 128.8 62.7C171.7 56.7 214.3 49.3 257.2 57.2C300 65 343 88 385.8 90C428.7 92 471.3 73 514.2 62.8C557 52.7 600 51.3 642.8 59C685.7 66.7 728.3 83.3 771.2 87.8C814 92.3 857 84.7 878.5 80.8L900 77L900 0L878.5 0C857 0 814 0 771.2 0C728.3 0 685.7 0 642.8 0C600 0 557 0 514.2 0C471.3 0 428.7 0 385.8 0C343 0 300 0 257.2 0C214.3 0 171.7 0 128.8 0C86 0 43 0 21.5 0L0 0Z" fill="#B74900" stroke-linecap="round" stroke-linejoin="miter"></path></svg>