<svg id="visual" viewBox="0 0 900 150" width="900" height="150" xmlns="http://www.w3.org/2000/svg" xmlns:xlink="http://www.w3.org/1999/xlink" version="1.1"><rect x="0" y="0" width="900" height="150" fill="#121212"></rect><path d="M0 61L37.5 69.3C75 77.7 150 94.3 225 94.5C300 94.7 375 78.3 450 75.8C525 73.3 600 84.7 675 83.8C750 83 825 70 862.5 63.5L900 57L900 151L862.5 151C825 151 750 151 675 151C600 151 525 151 450 151C375 151 300 151 225 151C150 151 75 151 37.5 151L0 151Z" fill="#B74900" stroke-linecap="round" stroke-linejoin="miter"></path></svg>